# xmcd
#
# Track frame offsets:
#	150
#	24990
#	46304
#	62294
#	82446
#	104410
#	126475
#	153527
#	173379
#	198568
#	214883
#	234147
#	256574
#	272476
#	294966
#	308518
#
# Disc length: 4415 seconds
#
# Revision: 0
# Processed by: cddbd v1.4PL0 Copyright (c) Steve Scherf et al.
# Submitted via: dBpowerAMP V4.0
#
DISCID=d0113d10
DTITLE=Phil Collins - Best of Phil Collins
DYEAR=1900
DGENRE=
TTITLE0=Another day in paradise
TTITLE1=Do you remember
TTITLE2=Against All Odds
TTITLE3=Sussudo
TTITLE4=One more night
TTITLE5=Don't lose my number
TTITLE6=Take me home
TTITLE7=We said hello goodbye
TTITLE8=In the air tonight
TTITLE9=Groovy kind of love
TTITLE10=Separate loves
TTITLE11=Easy lover
TTITLE12=Two hearts
TTITLE13=Something happened on the way to heaven
TTITLE14=You can't hurry love
TTITLE15=I don't care anymore
EXTD=
EXTT0=
EXTT1=
EXTT2=
EXTT3=
EXTT4=
EXTT5=
EXTT6=
EXTT7=
EXTT8=
EXTT9=
EXTT10=
EXTT11=
EXTT12=
EXTT13=
EXTT14=
EXTT15=
PLAYORDER=
